{
    "asset" : {
        "generator" : "Khronos glTF Blender I/O v1.5.17",
        "version" : "2.0"
    },
    "scene" : 0,
    "scenes" : [
        {
            "name" : "Scene",
            "nodes" : [
                0,
                1,
                2,
                3,
                4,
                5,
                6,
                7
            ]
        }
    ],
    "nodes" : [
        {
            "mesh" : 0,
            "name" : "Cylinder",
            "rotation" : [
                0.4964909255504608,
                -0.5034782886505127,
                0.49606579542160034,
                0.5039098262786865
            ],
            "scale" : [
                0.93747478723526,
                1.8096777200698853,
                0.9459218382835388
            ],
            "translation" : [
                -0.7618852853775024,
                -0.06633180379867554,
                -0.049791768193244934
            ]
        },
        {
            "mesh" : 1,
            "name" : "Cone",
            "rotation" : [
                -0.7225264310836792,
                -0.6884270906448364,
                -0.06012707203626633,
                0.020210113376379013
            ],
            "scale" : [
                0.9300000667572021,
                1,
                0.9300000667572021
            ],
            "translation" : [
                1.957373023033142,
                -0.15895619988441467,
                0.01683524064719677
            ]
        },
        {
            "mesh" : 2,
            "name" : "Cube.001",
            "scale" : [
                0.8700001239776611,
                0.08000066131353378,
                0.11000069975852966
            ],
            "translation" : [
                -2.9738290309906006,
                0.05049455910921097,
                -0.010031579993665218
            ]
        },
        {
            "mesh" : 3,
            "name" : "Cone_001",
            "rotation" : [
                0.7071070671081543,
                0,
                0,
                0.7071065306663513
            ],
            "scale" : [
                0.3600006103515625,
                1.1899999380111694,
                0.5500004291534424
            ],
            "translation" : [
                -0.6691769361495972,
                -0.07029391825199127,
                1.9615219831466675
            ]
        },
        {
            "mesh" : 4,
            "name" : "Cone_002",
            "rotation" : [
                -0.7071060538291931,
                0,
                0,
                0.7071075439453125
            ],
            "scale" : [
                0.3600006103515625,
                1.1899999380111694,
                0.5500004291534424
            ],
            "translation" : [
                -0.7035608887672424,
                -0.13079360127449036,
                -2.069474935531616
            ]
        },
        {
            "mesh" : 5,
            "name" : "Torus_001",
            "rotation" : [
                0,
                0,
                -0.7071065306663513,
                0.7071070671081543
            ],
            "scale" : [
                1.1200000047683716,
                0.8000001907348633,
                1.1200000047683716
            ],
            "translation" : [
                -3.473517894744873,
                0.0436696782708168,
                -0.0023846628610044718
            ]
        },
        {
            "mesh" : 6,
            "name" : "Cube_001",
            "scale" : [
                0.10000000149011612,
                0.8400002121925354,
                0.10000000149011612
            ],
            "translation" : [
                -3.4823050498962402,
                0.05271723121404648,
                -0.0060800909996032715
            ]
        },
        {
            "name" : "Sun",
            "translation" : [
                0,
                7.778855323791504,
                0
            ]
        }
    ],
    "materials" : [
        {
            "doubleSided" : true,
            "name" : "Material_001",
            "pbrMetallicRoughness" : {
                "baseColorFactor" : [
                    1,
                    0.2235713005065918,
                    0.027857258915901184,
                    1
                ]
            }
        },
        {
            "doubleSided" : true,
            "name" : "Material_002",
            "pbrMetallicRoughness" : {}
        },
        {
            "doubleSided" : true,
            "name" : "Material_003",
            "pbrMetallicRoughness" : {}
        },
        {
            "doubleSided" : true,
            "name" : "Material_004",
            "pbrMetallicRoughness" : {}
        },
        {
            "doubleSided" : true,
            "name" : "Material_005",
            "pbrMetallicRoughness" : {}
        },
        {
            "doubleSided" : true,
            "name" : "Material_006",
            "pbrMetallicRoughness" : {}
        },
        {
            "doubleSided" : true,
            "name" : "Material_007",
            "pbrMetallicRoughness" : {}
        }
    ],
    "meshes" : [
        {
            "name" : "Cylinder",
            "primitives" : [
                {
                    "attributes" : {
                        "POSITION" : 0,
                        "NORMAL" : 1
                    },
                    "indices" : 2,
                    "material" : 0
                }
            ]
        },
        {
            "name" : "Cone",
            "primitives" : [
                {
                    "attributes" : {
                        "POSITION" : 3,
                        "NORMAL" : 4
                    },
                    "indices" : 5,
                    "material" : 1
                }
            ]
        },
        {
            "name" : "Cube.001",
            "primitives" : [
                {
                    "attributes" : {
                        "POSITION" : 6,
                        "NORMAL" : 7
                    },
                    "indices" : 8,
                    "material" : 2
                }
            ]
        },
        {
            "name" : "Cone.001",
            "primitives" : [
                {
                    "attributes" : {
                        "POSITION" : 9,
                        "NORMAL" : 10
                    },
                    "indices" : 5,
                    "material" : 3
                }
            ]
        },
        {
            "name" : "Cone.002",
            "primitives" : [
                {
                    "attributes" : {
                        "POSITION" : 11,
                        "NORMAL" : 12
                    },
                    "indices" : 5,
                    "material" : 4
                }
            ]
        },
        {
            "name" : "Torus.001",
            "primitives" : [
                {
                    "attributes" : {
                        "POSITION" : 13,
                        "NORMAL" : 14
                    },
                    "indices" : 15,
                    "material" : 5
                }
            ]
        },
        {
            "name" : "Cube.002",
            "primitives" : [
                {
                    "attributes" : {
                        "POSITION" : 16,
                        "NORMAL" : 17
                    },
                    "indices" : 8,
                    "material" : 6
                }
            ]
        }
    ],
    "accessors" : [
        {
            "bufferView" : 0,
            "componentType" : 5126,
            "count" : 281,
            "max" : [
                1,
                1,
                1
            ],
            "min" : [
                -1,
                -1,
                -1
            ],
            "type" : "VEC3"
        },
        {
            "bufferView" : 1,
            "componentType" : 5126,
            "count" : 281,
            "type" : "VEC3"
        },
        {
            "bufferView" : 2,
            "componentType" : 5123,
            "count" : 372,
            "type" : "SCALAR"
        },
        {
            "bufferView" : 3,
            "componentType" : 5126,
            "count" : 149,
            "max" : [
                1,
                1,
                1
            ],
            "min" : [
                -1,
                -1,
                -1
            ],
            "type" : "VEC3"
        },
        {
            "bufferView" : 4,
            "componentType" : 5126,
            "count" : 149,
            "type" : "VEC3"
        },
        {
            "bufferView" : 5,
            "componentType" : 5123,
            "count" : 186,
            "type" : "SCALAR"
        },
        {
            "bufferView" : 6,
            "componentType" : 5126,
            "count" : 24,
            "max" : [
                1,
                1,
                1
            ],
            "min" : [
                -1,
                -1,
                -1
            ],
            "type" : "VEC3"
        },
        {
            "bufferView" : 7,
            "componentType" : 5126,
            "count" : 24,
            "type" : "VEC3"
        },
        {
            "bufferView" : 8,
            "componentType" : 5123,
            "count" : 36,
            "type" : "SCALAR"
        },
        {
            "bufferView" : 9,
            "componentType" : 5126,
            "count" : 149,
            "max" : [
                1,
                1,
                1
            ],
            "min" : [
                -1,
                -1,
                -1
            ],
            "type" : "VEC3"
        },
        {
            "bufferView" : 10,
            "componentType" : 5126,
            "count" : 149,
            "type" : "VEC3"
        },
        {
            "bufferView" : 11,
            "componentType" : 5126,
            "count" : 149,
            "max" : [
                1,
                1,
                1
            ],
            "min" : [
                -1,
                -1,
                -1
            ],
            "type" : "VEC3"
        },
        {
            "bufferView" : 12,
            "componentType" : 5126,
            "count" : 149,
            "type" : "VEC3"
        },
        {
            "bufferView" : 13,
            "componentType" : 5126,
            "count" : 3456,
            "max" : [
                1.25,
                0.25,
                1.25
            ],
            "min" : [
                -1.25,
                -0.25,
                -1.25
            ],
            "type" : "VEC3"
        },
        {
            "bufferView" : 14,
            "componentType" : 5126,
            "count" : 3456,
            "type" : "VEC3"
        },
        {
            "bufferView" : 15,
            "componentType" : 5123,
            "count" : 3456,
            "type" : "SCALAR"
        },
        {
            "bufferView" : 16,
            "componentType" : 5126,
            "count" : 24,
            "max" : [
                1,
                1,
                1
            ],
            "min" : [
                -1,
                -1,
                -1
            ],
            "type" : "VEC3"
        },
        {
            "bufferView" : 17,
            "componentType" : 5126,
            "count" : 24,
            "type" : "VEC3"
        }
    ],
    "bufferViews" : [
        {
            "buffer" : 0,
            "byteLength" : 3372,
            "byteOffset" : 0
        },
        {
            "buffer" : 0,
            "byteLength" : 3372,
            "byteOffset" : 3372
        },
        {
            "buffer" : 0,
            "byteLength" : 744,
            "byteOffset" : 6744
        },
        {
            "buffer" : 0,
            "byteLength" : 1788,
            "byteOffset" : 7488
        },
        {
            "buffer" : 0,
            "byteLength" : 1788,
            "byteOffset" : 9276
        },
        {
            "buffer" : 0,
            "byteLength" : 372,
            "byteOffset" : 11064
        },
        {
            "buffer" : 0,
            "byteLength" : 288,
            "byteOffset" : 11436
        },
        {
            "buffer" : 0,
            "byteLength" : 288,
            "byteOffset" : 11724
        },
        {
            "buffer" : 0,
            "byteLength" : 72,
            "byteOffset" : 12012
        },
        {
            "buffer" : 0,
            "byteLength" : 1788,
            "byteOffset" : 12084
        },
        {
            "buffer" : 0,
            "byteLength" : 1788,
            "byteOffset" : 13872
        },
        {
            "buffer" : 0,
            "byteLength" : 1788,
            "byteOffset" : 15660
        },
        {
            "buffer" : 0,
            "byteLength" : 1788,
            "byteOffset" : 17448
        },
        {
            "buffer" : 0,
            "byteLength" : 41472,
            "byteOffset" : 19236
        },
        {
            "buffer" : 0,
            "byteLength" : 41472,
            "byteOffset" : 60708
        },
        {
            "buffer" : 0,
            "byteLength" : 6912,
            "byteOffset" : 102180
        },
        {
            "buffer" : 0,
            "byteLength" : 288,
            "byteOffset" : 109092
        },
        {
            "buffer" : 0,
            "byteLength" : 288,
            "byteOffset" : 109380
        }
    ],
    "buffers" : [
        {
            "byteLength" : 109668,
            "uri" : "player.bin"
        }
    ]
}
